PathFileType	4	(X/Y/Z)	pose_F01_0-96.trc
DataRate	CameraRate	NumFrames	NumMarkers	Units	OrigDataRate	OrigDataStartFrame	OrigNumFrames
30	30	7	21	m	30	84	96
Frame#	Time	CHip			RHip			RKnee			RAnkle			RBigToe			RSmallToe			RHeel			LHip			LKnee			LAnkle			LBigToe			LSmallToe			LHeel			Neck			Nose			RShoulder			RElbow			RWrist			LShoulder			LElbow			LWrist			
		X1	Y1	Z1	X2	Y2	Z2	X3	Y3	Z3	X4	Y4	Z4	X5	Y5	Z5	X6	Y6	Z6	X7	Y7	Z7	X8	Y8	Z8	X9	Y9	Z9	X10	Y10	Z10	X11	Y11	Z11	X12	Y12	Z12	X13	Y13	Z13	X14	Y14	Z14	X15	Y15	Z15	X16	Y16	Z16	X17	Y17	Z17	X18	Y18	Z18	X19	Y19	Z19	X20	Y20	Z20	X21	Y21	Z21	
84	2.8	-0.218066736725688	1.8334410045283702	-0.5511492108574615	-0.2307681019235679	1.8337712647453648	-0.4847002548379417	-0.279703376133691	1.7039593396519914	-0.5822166357529114	-0.2940437348639068	1.5664527997580269	-0.5687626690440502	-0.2836998457404089	1.5343121291369106	-0.5142032003596485	-0.2954422256810362	1.5449801620014671	-0.49829272607585545	-0.29683270940609874	1.5498590577766882	-0.5813723988883704	-0.20088606174652435	1.8362110799052245	-0.6168497477881526	-0.22727627836974829	1.7115334793883583	-0.7167950141212667	-0.2420055273115262	1.5756574266640357	-0.7336205761882466	-0.23669904715775472	1.5380758360683568	-0.7075612060643779	-0.22583944660181093	1.5418812794334595	-0.743651994369399				-0.2164015346355324	1.9892868458438484	-0.5940979984928952	-0.2015644721715214	2.056984837918072	-0.5798474221361308	-0.23700678418261945	1.988559513463166	-0.5001235620424331	-0.250512495833119	1.9025351027621764	-0.4401990196002441	-0.29465893593092773	1.8907262222475485	-0.4917629449946156	-0.19299643232233968	1.9914099995276686	-0.6884311535645302	-0.18370947722759215	1.9099832049207839	-0.703263591990754	-0.9469243374461622	1.7674078553337869	-0.12094759328911812
85	2.8333333333333335	-0.22159390236374407	1.8327249979714886	-0.5385486278007869	-0.23417501859803846	1.8318588064108923	-0.4747992176948067	-0.279703376133691	1.7039593396519914	-0.5822166357529114	-0.2940437348639068	1.5664527997580269	-0.5687626690440502	-0.2836998457404089	1.5343121291369106	-0.5142032003596485	-0.2954422256810362	1.5449801620014671	-0.49829272607585545	-0.29683270940609874	1.5498590577766882	-0.5813723988883704	-0.20848517714242717	1.8303630778776279	-0.5952262469728722	-0.22727627836974829	1.7115334793883583	-0.7167950141212667	-0.2420055273115262	1.5756574266640357	-0.7336205761882466	-0.23669904715775472	1.5380758360683568	-0.7075612060643779	-0.22583944660181093	1.5418812794334595	-0.743651994369399				-0.2219007506169605	1.988637902855722	-0.5757665202495313	-0.2069202609214132	2.056472889039964	-0.5616249733333792	-0.23995746523926711	1.988004694764434	-0.4838929289819948	-0.250268143308424	1.9029549346330996	-0.42310651321656656	-0.29465893593092773	1.8907262222475485	-0.4917629449946156	-0.2000216466740274	1.9907918011339152	-0.6729721901180444	-0.18958133899353893	1.9088565104686428	-0.6930198777059456	-0.9469243374461622	1.7674078553337869	-0.12094759328911812
86	2.8666666666666667	-0.22512106800180012	1.8320089914146072	-0.5259480447441125	-0.23758193527250906	1.8299463480764195	-0.46489818055167165	-0.279703376133691	1.7039593396519914	-0.5822166357529114	-0.2940437348639068	1.5664527997580269	-0.5687626690440502	-0.2836998457404089	1.5343121291369106	-0.5142032003596485	-0.2954422256810362	1.5449801620014671	-0.49829272607585545	-0.29683270940609874	1.5498590577766882	-0.5813723988883704	-0.21186175717311453	1.8335850433544476	-0.5875163233794348	-0.22727627836974829	1.7115334793883583	-0.7167950141212667	-0.2420055273115262	1.5756574266640357	-0.7336205761882466	-0.23669904715775472	1.5380758360683568	-0.7075612060643779	-0.22583944660181093	1.5418812794334595	-0.743651994369399				-0.22427691227619606	1.988191656576836	-0.5649446930766806	-0.2092482600624195	2.0533927628673387	-0.5503370942550527	-0.24393207082199075	1.9862665477090045	-0.4704569315558771	-0.25707557938340897	1.9015914090484831	-0.41068431373775005	-0.29465893593092773	1.8907262222475485	-0.4917629449946156	-0.20273558391452123	1.9917991401138448	-0.6624812005267124	-0.1923268770586562	1.9118112875434472	-0.6822136050730498	-0.9469243374461622	1.7674078553337869	-0.12094759328911812
87	2.9	-0.2286482336398562	1.8312929848577255	-0.513347461687438	-0.24098885194697964	1.828033889741947	-0.45499714340853664	-0.279703376133691	1.7039593396519914	-0.5822166357529114	-0.2940437348639068	1.5664527997580269	-0.5687626690440502	-0.2836998457404089	1.5343121291369106	-0.5142032003596485	-0.2954422256810362	1.5449801620014671	-0.49829272607585545	-0.29683270940609874	1.5498590577766882	-0.5813723988883704	-0.21316362528061603	1.8351738492367837	-0.5821060635630394	-0.22727627836974829	1.7115334793883583	-0.7167950141212667	-0.2420055273115262	1.5756574266640357	-0.7336205761882466	-0.23669904715775472	1.5380758360683568	-0.7075612060643779	-0.22583944660181093	1.5418812794334595	-0.743651994369399				-0.22650578481304012	1.9878452698134477	-0.5540730036812227	-0.20758679417976736	2.0544324674401975	-0.5360802624148212	-0.2469070681187995	1.984813616146018	-0.4627501209935379	-0.2579490233556572	1.9022527442751738	-0.40513616227134147	-0.29465893593092773	1.8907262222475485	-0.4917629449946156	-0.20508324339989917	1.992642719553297	-0.6517342879366628	-0.19942448289238704	1.9141308081660968	-0.6673335371430323	-0.9469243374461622	1.7674078553337869	-0.12094759328911812
88	2.933333333333333	-0.2284846825370175	1.8323223153942527	-0.5133075463427885	-0.2399395276418647	1.8300816069767316	-0.4520609844200471	-0.279703376133691	1.7039593396519914	-0.5822166357529114	-0.2940437348639068	1.5664527997580269	-0.5687626690440502	-0.2836998457404089	1.5343121291369106	-0.5142032003596485	-0.2954422256810362	1.5449801620014671	-0.49829272607585545	-0.29683270940609874	1.5498590577766882	-0.5813723988883704	-0.21320645690053108	1.8356638504745666	-0.5736359945477801	-0.22727627836974829	1.7115334793883583	-0.7167950141212667	-0.2420055273115262	1.5756574266640357	-0.7336205761882466	-0.23669904715775472	1.5380758360683568	-0.7075612060643779	-0.22583944660181093	1.5418812794334595	-0.743651994369399				-0.22965170380292166	1.9878590719812959	-0.5464329907710465	-0.21057021195714296	2.053039894538375	-0.5278582357190428	-0.2488023708106448	1.9845133966862925	-0.45205021255055033	-0.2599191279604166	1.899669458099379	-0.40265319675877687	-0.29465893593092773	1.8907262222475485	-0.4917629449946156	-0.2106492128349765	1.9924193812700877	-0.6419785444792873	-0.19940143196367116	1.9124844135981143	-0.6583598311492826	-0.9469243374461622	1.7674078553337869	-0.12094759328911812
89	2.966666666666667	-0.2295223323467541	1.8299005042141596	-0.5076679419017457	-0.23984286239653702	1.8296153747888502	-0.45183839101780576	-0.279703376133691	1.7039593396519914	-0.5822166357529114	-0.2940437348639068	1.5664527997580269	-0.5687626690440502	-0.2836998457404089	1.5343121291369106	-0.5142032003596485	-0.2954422256810362	1.5449801620014671	-0.49829272607585545	-0.29683270940609874	1.5498590577766882	-0.5813723988883704	-0.21230480243062705	1.8349131400312775	-0.5703237693550574	-0.22727627836974829	1.7115334793883583	-0.7167950141212667	-0.2420055273115262	1.5756574266640357	-0.7336205761882466	-0.23669904715775472	1.5380758360683568	-0.7075612060643779	-0.22583944660181093	1.5418812794334595	-0.743651994369399				-0.23167019134497274	1.9878244580672497	-0.5439890177611315	-0.21166218420936608	2.054040272452683	-0.522953534651332	-0.24881460521938922	1.9832202361682252	-0.45144022327292055	-0.2601304748577718	1.89891628305392	-0.40250201185542006	-0.29465893593092773	1.8907262222475485	-0.4917629449946156	-0.2117857772403568	1.993751049127803	-0.6363431128555894	-0.1994741110585863	1.914186674447674	-0.6543013436998871	-0.9469243374461622	1.7674078553337869	-0.12094759328911812
90	3.0	-0.2296921704043581	1.8283780156010887	-0.5073041109516601	-0.23889514415743884	1.827065461590549	-0.44820925487272995	-0.279703376133691	1.7039593396519914	-0.5822166357529114	-0.2940437348639068	1.5664527997580269	-0.5687626690440502	-0.2836998457404089	1.5343121291369106	-0.5142032003596485	-0.2954422256810362	1.5449801620014671	-0.49829272607585545	-0.29683270940609874	1.5498590577766882	-0.5813723988883704	-0.21435280276140545	1.831515810056183	-0.5676666202311146	-0.22727627836974829	1.7115334793883583	-0.7167950141212667	-0.2420055273115262	1.5756574266640357	-0.7336205761882466	-0.23669904715775472	1.5380758360683568	-0.7075612060643779	-0.22583944660181093	1.5418812794334595	-0.743651994369399				-0.23274580944937245	1.9888256379679374	-0.5390882737592174	-0.21478764751282314	2.0525518124188293	-0.5156106710128312	-0.2508968480029317	1.9831880738312273	-0.4496921309112099	-0.2601729425252522	1.8965923616542895	-0.4020263332340917	-0.29465893593092773	1.8907262222475485	-0.4917629449946156	-0.212064256677057	1.9934801644428395	-0.6279768790654949	-0.1995467901535015	1.915888935297234	-0.6502428562504916	-0.9469243374461622	1.7674078553337869	-0.12094759328911812
